{
	"asset":{
		"generator":"Khronos glTF Blender I/O v4.1.62",
		"version":"2.0"
	},
	"scene":0,
	"scenes":[
		{
			"name":"Scene",
			"nodes":[
				0,
				1,
				2,
				3
			]
		}
	],
	"nodes":[
		{
			"mesh":0,
			"name":"Tongue_Cube",
			"scale":[
				0.8055579662322998,
				0.8055579662322998,
				0.8055579662322998
			]
		},
		{
			"mesh":1,
			"name":"LowerJaw_Cube.001",
			"scale":[
				0.8055579662322998,
				0.8055579662322998,
				0.8055579662322998
			]
		},
		{
			"mesh":2,
			"name":"UpperJaw_Cube.002",
			"scale":[
				0.8055579662322998,
				0.8055579662322998,
				0.8055579662322998
			]
		},
		{
			"mesh":3,
			"name":"path2",
			"rotation":[
				0.6850831508636475,
				-0.15558086335659027,
				-0.15225516259670258,
				0.6951791644096375
			],
			"scale":[
				8.856762886047363,
				1.0002026557922363,
				8.856456756591797
			],
			"translation":[
				0.01946660876274109,
				1.736312985420227,
				0.18730174005031586
			]
		}
	],
	"materials":[
		{
			"name":"Material.005",
			"pbrMetallicRoughness":{
				"baseColorFactor":[
					0.49983111023902893,
					0.022288016974925995,
					0.02694868855178356,
					1
				],
				"metallicFactor":0
			}
		},
		{
			"name":"Material.002",
			"pbrMetallicRoughness":{
				"baseColorFactor":[
					0.9617882966995239,
					0.8037384748458862,
					0.809043288230896,
					1
				],
				"metallicFactor":0
			}
		},
		{
			"name":"Material.003",
			"pbrMetallicRoughness":{
				"baseColorFactor":[
					1,
					0.5911994576454163,
					0.8620047569274902,
					1
				],
				"metallicFactor":0
			}
		},
		{
			"doubleSided":true,
			"name":"Material.004",
			"pbrMetallicRoughness":{
				"baseColorFactor":[
					0.042310308665037155,
					0.3467041254043579,
					0.9646865129470825,
					1
				],
				"metallicFactor":0
			}
		}
	],
	"meshes":[
		{
			"name":"Tongue_Cube-Mesh",
			"primitives":[
				{
					"attributes":{
						"POSITION":0,
						"NORMAL":1,
						"TEXCOORD_0":2
					},
					"indices":3,
					"material":0
				}
			]
		},
		{
			"name":"LowerJaw_Cube.001-Mesh",
			"primitives":[
				{
					"attributes":{
						"POSITION":4,
						"NORMAL":5,
						"TEXCOORD_0":6
					},
					"indices":7,
					"material":1
				},
				{
					"attributes":{
						"POSITION":8,
						"NORMAL":9,
						"TEXCOORD_0":10
					},
					"indices":11,
					"material":2
				}
			]
		},
		{
			"name":"UpperJaw_Cube.002-Mesh",
			"primitives":[
				{
					"attributes":{
						"POSITION":12,
						"NORMAL":13,
						"TEXCOORD_0":14
					},
					"indices":15,
					"material":2
				},
				{
					"attributes":{
						"POSITION":16,
						"NORMAL":17,
						"TEXCOORD_0":18
					},
					"indices":19,
					"material":1
				}
			]
		},
		{
			"name":"path2",
			"primitives":[
				{
					"attributes":{
						"POSITION":20,
						"NORMAL":21,
						"TEXCOORD_0":22
					},
					"indices":23,
					"material":3
				}
			]
		}
	],
	"accessors":[
		{
			"bufferView":0,
			"componentType":5126,
			"count":586,
			"max":[
				0.28943800926208496,
				0.349808007478714,
				0.8568239808082581
			],
			"min":[
				-0.29010599851608276,
				0.12757399678230286,
				-0.32791298627853394
			],
			"type":"VEC3"
		},
		{
			"bufferView":1,
			"componentType":5126,
			"count":586,
			"type":"VEC3"
		},
		{
			"bufferView":2,
			"componentType":5126,
			"count":586,
			"type":"VEC2"
		},
		{
			"bufferView":3,
			"componentType":5123,
			"count":3072,
			"type":"SCALAR"
		},
		{
			"bufferView":4,
			"componentType":5126,
			"count":1534,
			"max":[
				0.6778010129928589,
				0.355103999376297,
				0.970022976398468
			],
			"min":[
				-0.6812769770622253,
				0.016927000135183334,
				-0.22636400163173676
			],
			"type":"VEC3"
		},
		{
			"bufferView":5,
			"componentType":5126,
			"count":1534,
			"type":"VEC3"
		},
		{
			"bufferView":6,
			"componentType":5126,
			"count":1534,
			"type":"VEC2"
		},
		{
			"bufferView":7,
			"componentType":5123,
			"count":6912,
			"type":"SCALAR"
		},
		{
			"bufferView":8,
			"componentType":5126,
			"count":6962,
			"max":[
				0.6784980297088623,
				0.21988600492477417,
				0.995585024356842
			],
			"min":[
				-0.6819739937782288,
				-0.004056999925523996,
				-0.23190900683403015
			],
			"type":"VEC3"
		},
		{
			"bufferView":9,
			"componentType":5126,
			"count":6962,
			"type":"VEC3"
		},
		{
			"bufferView":10,
			"componentType":5126,
			"count":6962,
			"type":"VEC2"
		},
		{
			"bufferView":11,
			"componentType":5123,
			"count":25008,
			"type":"SCALAR"
		},
		{
			"bufferView":12,
			"componentType":5126,
			"count":6981,
			"max":[
				0.6791499853134155,
				0.6601210236549377,
				1.0211219787597656
			],
			"min":[
				-0.6813229918479919,
				0.42411500215530396,
				-0.20436200499534607
			],
			"type":"VEC3"
		},
		{
			"bufferView":13,
			"componentType":5126,
			"count":6981,
			"type":"VEC3"
		},
		{
			"bufferView":14,
			"componentType":5126,
			"count":6981,
			"type":"VEC2"
		},
		{
			"bufferView":15,
			"componentType":5123,
			"count":25008,
			"type":"SCALAR"
		},
		{
			"bufferView":16,
			"componentType":5126,
			"count":1536,
			"max":[
				0.6784530282020569,
				0.6304929852485657,
				1.0067750215530396
			],
			"min":[
				-0.6806250214576721,
				0.2619349956512451,
				-0.19128699600696564
			],
			"type":"VEC3"
		},
		{
			"bufferView":17,
			"componentType":5126,
			"count":1536,
			"type":"VEC3"
		},
		{
			"bufferView":18,
			"componentType":5126,
			"count":1536,
			"type":"VEC2"
		},
		{
			"bufferView":19,
			"componentType":5123,
			"count":6906,
			"type":"SCALAR"
		},
		{
			"bufferView":20,
			"componentType":5126,
			"count":12067,
			"max":[
				0.12750764191150665,
				0.042964059859514236,
				0.0887756273150444
			],
			"min":[
				-0.06842973828315735,
				-0.0859299898147583,
				-0.053738780319690704
			],
			"type":"VEC3"
		},
		{
			"bufferView":21,
			"componentType":5126,
			"count":12067,
			"type":"VEC3"
		},
		{
			"bufferView":22,
			"componentType":5126,
			"count":12067,
			"type":"VEC2"
		},
		{
			"bufferView":23,
			"componentType":5123,
			"count":26976,
			"type":"SCALAR"
		}
	],
	"bufferViews":[
		{
			"buffer":0,
			"byteLength":7032,
			"byteOffset":0,
			"target":34962
		},
		{
			"buffer":0,
			"byteLength":7032,
			"byteOffset":7032,
			"target":34962
		},
		{
			"buffer":0,
			"byteLength":4688,
			"byteOffset":14064,
			"target":34962
		},
		{
			"buffer":0,
			"byteLength":6144,
			"byteOffset":18752,
			"target":34963
		},
		{
			"buffer":0,
			"byteLength":18408,
			"byteOffset":24896,
			"target":34962
		},
		{
			"buffer":0,
			"byteLength":18408,
			"byteOffset":43304,
			"target":34962
		},
		{
			"buffer":0,
			"byteLength":12272,
			"byteOffset":61712,
			"target":34962
		},
		{
			"buffer":0,
			"byteLength":13824,
			"byteOffset":73984,
			"target":34963
		},
		{
			"buffer":0,
			"byteLength":83544,
			"byteOffset":87808,
			"target":34962
		},
		{
			"buffer":0,
			"byteLength":83544,
			"byteOffset":171352,
			"target":34962
		},
		{
			"buffer":0,
			"byteLength":55696,
			"byteOffset":254896,
			"target":34962
		},
		{
			"buffer":0,
			"byteLength":50016,
			"byteOffset":310592,
			"target":34963
		},
		{
			"buffer":0,
			"byteLength":83772,
			"byteOffset":360608,
			"target":34962
		},
		{
			"buffer":0,
			"byteLength":83772,
			"byteOffset":444380,
			"target":34962
		},
		{
			"buffer":0,
			"byteLength":55848,
			"byteOffset":528152,
			"target":34962
		},
		{
			"buffer":0,
			"byteLength":50016,
			"byteOffset":584000,
			"target":34963
		},
		{
			"buffer":0,
			"byteLength":18432,
			"byteOffset":634016,
			"target":34962
		},
		{
			"buffer":0,
			"byteLength":18432,
			"byteOffset":652448,
			"target":34962
		},
		{
			"buffer":0,
			"byteLength":12288,
			"byteOffset":670880,
			"target":34962
		},
		{
			"buffer":0,
			"byteLength":13812,
			"byteOffset":683168,
			"target":34963
		},
		{
			"buffer":0,
			"byteLength":144804,
			"byteOffset":696980,
			"target":34962
		},
		{
			"buffer":0,
			"byteLength":144804,
			"byteOffset":841784,
			"target":34962
		},
		{
			"buffer":0,
			"byteLength":96536,
			"byteOffset":986588,
			"target":34962
		},
		{
			"buffer":0,
			"byteLength":53952,
			"byteOffset":1083124,
			"target":34963
		}
	],
	"buffers":[
		{
			"byteLength":1137076,
			"uri":"jawspace-logo.bin"
		}
	]
}
